<svg width="32770" height="17717" viewBox="0 0 32770 17717" fill="none" xmlns="http://www.w3.org/2000/svg">
<path fill-rule="evenodd" clip-rule="evenodd" d="M14684 3554.39C14705.6 3565.19 14727.1 3608.4 14721.7 3651.61C14716.3 3700.22 14657 3727.22 14543.9 3727.22C14446.8 3727.22 14220.4 3765.03 14042.6 3808.24C13864.7 3856.85 13562.9 3970.28 13368.8 4062.1C13174.8 4159.32 12862.2 4386.17 12673.5 4564.4C12484.9 4742.64 12236.9 5023.5 12129.1 5185.54C12015.9 5347.57 11870.4 5596.02 11671 5979.51L11854.2 6082.13C11956.6 6136.14 12193.8 6352.19 12382.4 6562.83C12635.8 6838.29 12808.3 7102.95 13023.9 7535.04C13180.2 7859.11 13509 8685.49 13751.5 9371.44C13994.1 10052 14295.9 10916.2 14430.7 11288.8C14560 11661.5 14775.6 12266.5 14905 12639.1C15029 13011.8 15152.9 13357.5 15169.1 13406.1C15185.3 13460.1 15228.4 13503.3 15255.3 13503.3C15282.3 13503.3 15373.9 13470.9 15449.4 13433.1C15551.8 13384.5 15578.7 13341.3 15557.2 13260.3C15535.6 13200.9 15508.7 13006.4 15492.5 12828.2C15470.9 12606.7 15487.1 12385.3 15551.8 12126C15600.3 11915.4 15718.9 11612.9 15805.1 11450.9C15896.8 11288.8 16063.8 11040.4 16177 10894.6C16311.8 10737.9 16419.6 10651.5 16468.1 10667.7C16511.2 10683.9 16548.9 10732.5 16548.9 10775.7C16548.9 10818.9 16527.4 10862.2 16500.4 10867.6C16473.5 10878.4 16360.3 11029.6 16257.9 11207.8C16150.1 11386.1 16020.7 11666.9 15972.2 11829C15923.7 11991 15880.6 12309.7 15880.6 12531.1C15880.6 12752.6 15896.8 12979.4 15918.3 13028C15956 13119.8 15961.4 13119.8 16107 13033.4C16187.8 12979.4 16570.5 12704 16953.2 12417.7C17335.9 12136.8 17885.7 11742.5 18166 11548.1C18446.2 11359.1 18893.6 11067.4 19163.1 10916.2C19438 10754.1 19626.7 10608.3 19594.3 10586.7C19567.4 10565.1 19028.4 10176.2 18408.5 9722.51C17788.7 9274.21 17174.2 8804.31 17044.8 8680.09C16915.5 8555.86 16748.4 8318.21 16672.9 8156.17C16570.5 7950.93 16522 7740.29 16505.8 7481.03C16489.7 7221.77 16511.2 7000.33 16575.9 6778.88C16624.4 6600.64 16737.6 6357.59 16818.5 6238.76C16899.3 6119.94 17071.8 5925.5 17201.1 5812.07C17330.5 5693.25 17573.1 5536.61 17734.8 5466.4C17896.5 5390.78 18198.3 5309.76 18408.5 5277.36C18672.6 5239.55 18958.3 5244.95 19351.8 5288.16C19664.4 5320.57 20047.1 5347.57 20483.7 5347.57L20516 5736.46C20532.2 5952.5 20537.6 6314.38 20526.8 6535.83C20516 6849.09 20494.5 6940.91 20429.8 6940.91C20381.3 6940.91 20338.2 6865.3 20316.6 6724.87C20295 6606.04 20241.1 6427.8 20192.6 6330.58C20144.1 6238.76 20004 6082.13 19880 5990.31C19750.6 5903.89 19529.6 5790.47 19378.7 5747.26C19233.2 5704.05 18979.9 5671.64 18828.9 5671.64C18672.6 5671.64 18430.1 5709.45 18289.9 5758.06C18144.4 5806.67 17934.2 5914.69 17815.6 5995.71C17697 6076.73 17535.3 6260.37 17454.5 6406.2C17330.5 6622.25 17308.9 6741.07 17303.6 7059.74C17303.6 7318.99 17335.9 7513.44 17389.8 7626.86C17438.3 7724.08 17540.7 7875.31 17621.6 7956.33C17697 8042.75 18133.6 8383.02 18591.8 8712.49C19044.5 9047.37 19675.2 9506.46 20564.5 10160L21103.5 9916.95C21400 9781.92 21734.2 9641.49 22052.2 9533.47L22046.8 7832.11C22041.4 6314.38 22030.6 6114.54 21949.8 5968.7C21895.9 5876.89 21771.9 5763.46 21669.5 5714.85C21567.1 5660.84 21389.2 5617.63 21281.4 5617.63C21114.3 5617.63 21076.6 5596.02 21076.6 5509.61C21076.6 5401.58 21114.3 5401.58 22531.9 5401.58C23949.5 5401.58 23987.2 5401.58 23987.2 5509.61C23987.2 5601.43 23949.5 5617.63 23760.8 5617.63C23626.1 5617.63 23459 5660.84 23356.6 5725.65C23259.6 5785.07 23135.6 5898.49 23087.1 5979.51C23000.8 6109.14 22990.1 6308.98 22952.3 9209.4L23081.7 9166.19C23146.4 9139.19 23572.2 9031.16 24014.2 8912.34C24461.5 8798.91 25124.5 8658.48 25496.4 8593.67C25868.3 8534.26 26488.2 8453.24 26870.9 8420.83C27253.6 8393.83 27674 8356.02 28029.7 8318.21V7194.77C28029.7 6579.04 28056.7 5930.9 28089 5752.66C28121.4 5574.42 28180.7 5320.57 28229.2 5185.54C28272.3 5050.51 28374.7 4845.26 28455.6 4726.44C28541.8 4607.61 28687.3 4440.18 28789.7 4353.76C28892.1 4267.34 29070 4148.51 29188.6 4089.1C29307.2 4029.69 29528.2 3948.67 29673.7 3905.46C29824.6 3862.25 29975.5 3840.65 30013.3 3856.85C30045.6 3873.05 30078 3905.46 30078 3927.07C30078 3954.07 30002.5 4018.89 29905.5 4078.3C29808.5 4137.71 29646.8 4272.74 29549.7 4375.36C29447.3 4477.98 29323.4 4650.82 29269.5 4753.44C29215.6 4856.07 29129.3 5077.51 29075.4 5239.55C29000 5482.6 28973 5801.27 28919.1 8361.42L29377.3 8420.83C29630.6 8453.24 30029.5 8528.86 30266.6 8588.27C30503.8 8647.68 30902.6 8798.91 31156 8923.14C31484.8 9085.17 31716.5 9252.61 31969.9 9501.06C32169.3 9700.91 32390.3 9976.37 32465.7 10127.6C32541.2 10273.4 32643.6 10543.5 32692.1 10721.7C32767.6 10981 32778.4 11202.4 32762.2 11829C32746 12536.5 32724.5 12660.7 32573.5 13098.2C32481.9 13362.9 32309.4 13751.8 32196.2 13957C32083.1 14162.3 31856.7 14459.3 31695 14621.4C31533.3 14783.4 31242.2 15021 31048.2 15150.7C30854.1 15274.9 30417.5 15512.6 30078 15680C29738.4 15847.4 29204.8 16074.3 28892.1 16193.1C28579.5 16311.9 28132.2 16468.6 27895 16544.2C27657.8 16619.8 27194.3 16754.8 26870.9 16846.6C26547.5 16938.5 25938.4 17084.3 25523.4 17170.7C25108.3 17257.1 24343 17392.2 23825.5 17467.8C23308.1 17543.4 22591.2 17629.8 22235.4 17662.2C21879.7 17689.2 21087.4 17716.2 20472.9 17716.2C19853 17716.2 18503.6 17661.3 18460.5 17645.1C18417.4 17628.8 18489.8 17466.6 18489.8 17434.2C18489.8 17401.8 19718.3 17548.8 20634.6 17532.6C21701.8 17516.4 22305.5 17484 22963.1 17397.6C23453.6 17332.7 24229.8 17208.5 24687.9 17116.7C25146.1 17024.9 25889.9 16857.4 26331.9 16738.6C26779.3 16619.8 27409.9 16436.2 27733.3 16333.5C28056.7 16225.5 28606.5 16031.1 28946.1 15896C29285.6 15761 29759.9 15555.8 29997.1 15431.5C30234.3 15312.7 30595.4 15107.5 30805.6 14972.4C31015.8 14837.4 31312.3 14605.2 31468.6 14453.9C31630.3 14302.7 31840.5 14032.6 31937.5 13854.4C32039.9 13676.2 32196.2 13298.1 32293.3 13017.2C32460.4 12536.5 32471.1 12455.5 32471.1 11747.9C32476.5 11137.6 32455 10932.4 32374.1 10694.7C32320.2 10532.7 32196.2 10273.4 32099.2 10127.6C32007.6 9976.37 31808.2 9749.52 31662.6 9619.89C31517.1 9490.26 31263.8 9317.42 31102.1 9236.41C30940.4 9155.39 30638.5 9036.56 30428.3 8971.75C30218.1 8906.94 29835.4 8820.52 29565.9 8777.31C29296.4 8734.1 29043.1 8696.29 29000 8696.29C28929.9 8696.29 28924.5 8982.55 28973 13438.5L29107.8 13584.3C29183.2 13665.4 29323.4 13768 29420.4 13805.8C29512 13849 29668.3 13881.4 29754.6 13881.4C29862.4 13881.4 29916.3 13908.4 29916.3 13962.4C29916.3 14032.6 29722.2 14043.4 28487.9 14043.4C27253.6 14043.4 27059.5 14032.6 27059.5 13962.4C27059.5 13908.4 27113.4 13881.4 27210.5 13881.4C27291.3 13881.4 27463.8 13827.4 27593.2 13757.2C27771 13670.8 27862.7 13578.9 27932.7 13422.3C28019 13233.3 28029.7 13022.6 28029.7 9992.57H22963.1L22946.9 12061.2C22930.8 14027.2 22925.4 14140.7 22812.2 14448.5C22747.5 14626.8 22618.1 14891.4 22521.1 15031.9C22424.1 15172.3 22208.5 15382.9 22046.8 15490.9C21885.1 15604.4 21604.8 15739.4 21426.9 15793.4C21249.1 15847.4 21060.4 15879.8 21011.9 15858.2C20958 15842 20914.9 15809.6 20914.9 15782.6C20914.9 15761 21028.1 15680 21157.4 15593.6C21292.2 15512.6 21480.8 15334.3 21583.2 15188.5C21685.7 15048.1 21825.8 14778 21895.9 14583.6C22009.1 14248.7 22019.8 14146.1 22046.8 12055.8C22063 10862.2 22063 9884.55 22046.8 9884.55C22030.6 9884.55 21815 9965.56 21561.7 10068.2C21308.4 10165.4 21038.9 10284.2 20817.9 10397.7L21108.9 10775.7C21270.6 10986.4 21459.3 11305.1 21534.7 11488.7C21610.2 11677.7 21696.4 11991 21728.8 12190.8C21771.9 12482.5 21771.9 12633.7 21707.2 12936.2C21664.1 13146.8 21561.7 13460.1 21475.4 13633C21383.8 13822 21184.4 14086.6 20995.7 14275.7C20817.9 14453.9 20526.8 14675.4 20348.9 14778C20171.1 14875.2 19831.5 15010.2 19594.3 15075.1C19281.7 15156.1 18996 15188.5 18570.2 15188.5C18187.5 15193.9 17842.6 15161.5 17600 15102.1C17389.8 15048.1 17066.4 14929.2 16872.4 14837.4C16667.5 14734.8 16392.6 14534.9 16198.6 14340.5C16020.7 14162.3 15837.5 13935.4 15794.3 13838.2C15751.2 13741 15686.5 13665.4 15659.6 13665.4C15632.6 13670.8 15541 13697.8 15309.2 13800.4L15562.6 14340.5C15697.3 14637.6 15934.5 15085.9 16085.4 15339.7C16230.9 15593.6 16500.4 15966.3 16672.9 16176.9C16845.4 16387.5 17136.5 16668.4 17319.7 16808.8C17503 16954.7 17821 17138.3 18031.2 17224.7C18241.4 17305.7 18451.6 17392.2 18505.5 17413.8C18554 17430 18595 17436.2 18595 17479.4C18595 17522.6 18564.8 17624.4 18532.5 17640.6C18494.8 17656.8 18192.9 17629.8 17869.5 17581.2C17546.1 17532.6 17179.6 17451.6 17061 17397.6C16942.4 17343.5 16748.4 17240.9 16629.8 17159.9C16511.2 17078.9 16247.1 16846.6 16047.7 16646.8C15842.9 16447 15546.4 16090.5 15395.5 15852.8C15239.2 15615.2 15007.4 15226.3 14883.4 14988.6C14764.8 14751 14619.3 14448.5 14463 14070.4L14037.2 14032.6C13805.4 14011 13476.6 13946.2 13314.9 13892.2C13153.2 13832.8 12921.4 13741 12802.9 13681.6C12684.3 13616.7 12441.7 13449.3 12269.3 13308.9C12091.4 13163 11757.2 12806.6 11105 11991L10447.4 12018L9283.17 14988.6L9951.54 14999.4C10501.3 15015.6 10619.9 15031.9 10619.9 15096.7C10619.9 15166.9 10339.6 15177.7 8409.98 15177.7C6480.35 15177.7 6200.06 15166.9 6200.06 15096.7C6200.06 15031.9 6286.3 15015.6 6674.39 15015.6C6933.11 15015.6 7170.27 14994 7208 14972.4C7256.51 14945.4 7208 14778 7030.13 14367.5C6900.77 14054.2 6755.24 13724.8 6717.51 13638.4C6674.39 13551.9 6555.81 13276.5 6448.01 13028C6340.2 12785 6173.11 12396.1 6070.7 12163.8C5968.29 11937 5752.69 11445.5 5590.99 11072.8C5429.29 10700.1 5251.42 10284.2 5095.1 9900.75L4744.75 9976.37C4550.71 10019.6 4281.21 10089.8 4141.07 10133C3995.54 10176.2 3858.3 10211.5 3858.3 10211.5L3767.9 10235.6C3767.9 10235.6 3715.25 10268 3666.74 10235.6C3607.45 10203.2 3645.18 10170.8 3828.44 10100.6C3963.2 10052 4286.6 9954.76 4545.32 9884.55C4804.04 9808.93 5008.86 9727.91 4992.69 9695.51C4981.91 9663.1 4787.87 9225.6 4566.88 8723.3C4345.89 8220.99 4103.34 7670.07 4027.88 7508.04C3952.41 7346 3839.22 7151.56 3769.15 7070.54C3699.08 6994.93 3580.5 6892.3 3505.04 6843.69C3429.58 6795.08 3251.71 6730.27 3100.79 6708.66C2917.53 6681.66 2831.29 6643.85 2831.29 6589.84C2831.29 6519.62 3030.72 6508.82 4221.92 6492.62C5574.82 6481.82 5607.16 6481.82 5607.16 6589.84C5607.16 6670.86 5569.43 6697.86 5461.63 6697.86C5375.39 6692.46 5246.03 6741.07 5165.18 6805.88C5046.59 6886.9 5014.25 6957.12 5014.25 7113.75C5014.25 7243.38 5175.95 7729.48 5903.61 9571.28L6173.11 9538.87C6324.03 9517.27 6695.95 9490.26 7008.57 9474.06C7418.21 9447.05 7714.67 9463.25 8086.58 9528.07C8366.86 9576.68 8727.99 9679.3 9164.59 9884.55L9870.68 8166.98C10258.8 7227.18 10614.5 6390 10652.2 6303.58C10716.9 6179.35 10716.9 6152.34 10646.9 6130.74C10603.7 6114.54 10425.9 6103.73 10258.8 6103.73C10086.3 6103.73 9827.56 6136.14 9676.64 6184.75C9531.11 6227.96 9374.8 6265.77 9342.46 6265.77C9304.73 6265.77 9272.39 6227.96 9272.39 6184.75C9272.39 6141.54 9337.07 6076.73 9423.31 6044.32C9504.16 6011.91 9741.32 5936.3 9946.15 5882.29C10156.4 5828.27 10458.2 5779.66 10916.4 5785.07L11061.9 5525.81C11142.7 5385.38 11342.2 5104.52 11503.9 4899.28C11671 4699.43 11956.6 4423.97 12145.3 4288.94C12328.5 4153.92 12565.7 3997.28 12668.1 3943.27C12770.5 3889.26 13013.1 3792.04 13207.1 3721.82C13428.1 3646.21 13756.9 3592.19 14096.5 3570.59C14392.9 3548.99 14657 3543.58 14684 3554.39ZM10539.1 8399.23C10415.1 8663.88 10242.6 9041.96 10156.4 9236.41C10070.1 9430.85 9935.36 9722.51 9859.9 9884.55L9714.37 10181.6C10145.6 10575.9 10285.7 10689.3 10312.7 10694.7C10334.2 10694.7 10350.4 10662.3 10350.4 10624.5C10350.4 10592.1 10690 9754.92 11099.6 8777.31L11843.4 6994.93C11665.6 6757.27 11563.2 6660.05 11498.5 6616.84C11385.3 6546.63 11374.5 6562.83 11072.7 7227.18C10905.6 7605.26 10663 8134.57 10539.1 8399.23ZM11498.5 9344.43C11309.8 9835.94 11067.3 10446.3 10964.9 10705.5L10781.6 11180.8L10943.3 11396.9L11105 11612.9C13029.3 11612.9 13584.4 11596.7 13584.4 11569.7C13584.4 11548.1 13347.3 10824.3 13050.8 9965.56C12759.7 9106.78 12457.9 8220.99 12387.8 8004.94C12312.4 7794.3 12231.5 7616.06 12204.6 7616.06C12177.6 7616.06 12086 7805.1 11999.8 8031.95C11913.5 8264.2 11687.1 8852.92 11498.5 9344.43ZM25226.9 8971.75C24914.3 9031.16 24348.3 9160.79 23960.3 9263.41C23577.6 9360.63 23200.3 9468.66 23124.8 9501.06C23033.2 9538.87 23760.8 9555.07 25512.6 9555.07L28029.7 9560.48V8696.29C27172.7 8707.09 26671.5 8739.5 26358.8 8782.71C26046.2 8825.92 25539.5 8906.94 25226.9 8971.75ZM6016.8 9814.33C6032.97 9868.34 6372.54 10737.9 6776.8 11747.9C7181.05 12758 7526.01 13600.5 7542.18 13622.1C7558.35 13643.8 7908.71 12849.8 8318.35 11866.8C8727.99 10878.4 9040.62 10057.4 9019.06 10030.4C8997.5 10008.8 8808.85 9927.76 8598.63 9846.74C8242.89 9711.71 8162.04 9700.91 7251.12 9690.1C6717.51 9684.7 6216.23 9690.1 6135.38 9700.91C6022.19 9717.11 5989.85 9744.12 6016.8 9814.33ZM7795.52 14459.3C7720.06 14648.4 7655.38 14848.2 7655.38 14907.6C7655.38 15004.8 7693.11 15015.6 8075.8 15015.6C8404.59 15021 8507 14999.4 8571.68 14929.2C8614.8 14875.2 8997.5 13962.4 9423.31 12898.4C9843.73 11834.4 10188.7 10937.8 10188.7 10910.8C10188.7 10878.4 10075.5 10759.5 9935.37 10640.7C9789.83 10527.3 9665.86 10430.1 9644.3 10424.7C9628.13 10424.7 9240.05 11256.4 8776.5 12271.9C8312.96 13292.7 7870.98 14275.7 7795.52 14459.3ZM18624.1 11602.1C18413.9 11737.1 17907.2 12099 17492.2 12396.1C17077.2 12698.6 16586.7 13049.6 16398 13184.7C16214.8 13314.3 16063.8 13433.1 16063.8 13449.3C16063.8 13465.5 16128.5 13578.9 16214.8 13703.2C16295.6 13827.4 16457.3 14011 16575.9 14113.7C16694.5 14216.3 16926.3 14367.5 17088 14443.1C17249.7 14518.7 17519.2 14610.6 17680.9 14643C17858.7 14680.8 18198.3 14691.6 18543.3 14675.4C19049.9 14648.4 19152.3 14621.4 19502.7 14448.5C19712.9 14345.9 20004 14156.9 20138.7 14027.2C20278.9 13903 20462.1 13654.6 20559.1 13476.3C20710.1 13179.3 20726.2 13109 20726.2 12612.1C20726.2 12120.6 20710.1 12039.6 20559.1 11720.9C20467.5 11526.5 20289.6 11256.4 20165.7 11110.6C20047.1 10970.2 19928.5 10856.8 19906.9 10856.8C19880 10856.8 19669.8 10970.2 19432.6 11105.2C19195.5 11245.6 18834.3 11467.1 18624.1 11602.1ZM11832.7 12514.9C12010.5 12720.2 12263.9 12979.4 12398.6 13087.4C12533.4 13195.5 12775.9 13357.5 12937.6 13443.9C13099.3 13535.7 13411.9 13643.8 13627.5 13687C13837.8 13735.6 14091.1 13773.4 14177.3 13773.4C14263.6 13773.4 14339 13768 14339 13757.2C14339 13751.8 14204.3 13357.5 14042.6 12882.2C13875.5 12406.9 13746.1 12012.6 13746.1 12001.8C13746.1 11996.4 13223.3 11991 12581.9 11991C11600.9 11991 11428.4 12001.8 11466.1 12066.6C11487.7 12109.8 11654.8 12309.7 11832.7 12514.9ZM1198.1 12477.1C1219.66 12477.1 1311.29 12606.7 1402.92 12758C1516.11 12957.8 1564.63 13119.8 1564.63 13287.3C1570.02 13449.3 1537.67 13562.7 1472.99 13622.1C1419.09 13676.2 1284.34 13724.8 1176.54 13730.2C1057.96 13741 950.16 13714 907.04 13670.8C847.749 13605.9 853.139 13600.5 917.82 13638.4C966.33 13665.4 982.5 13660 955.55 13633C928.6 13605.9 869.309 13584.3 820.799 13584.3C750.728 13584.3 723.778 13530.3 712.998 13368.3C702.218 13190.1 739.948 13092.8 923.21 12812C1047.18 12628.3 1171.15 12477.1 1198.1 12477.1Z" fill="#080808"/>
<path d="M1812.62 567.569C1828.79 475.749 1882.69 313.715 1925.81 205.691C1968.93 92.267 2028.22 0.44732 2055.17 0.44732C2082.12 0.44732 2200.7 130.075 2324.67 286.709C2443.25 437.941 2578 691.796 2621.12 837.627C2664.24 988.86 2696.58 1156.3 2691.19 1323.73L2804.39 1215.71C2863.68 1156.3 2922.97 1118.49 2933.75 1134.69C2939.14 1150.89 2998.43 1366.94 3063.11 1620.8C3122.4 1874.65 3187.08 2204.12 3203.25 2349.95C3219.42 2501.18 3203.25 2771.24 3165.52 2954.88C3106.23 3268.15 3106.23 3295.16 3197.86 3295.16C3278.71 3295.16 3284.1 3343.77 3257.15 3878.48C3230.2 4386.19 3208.64 4483.41 3079.28 4661.65C3003.82 4775.07 2901.41 4920.9 2858.29 4980.32C2782.83 5093.74 2782.83 5093.74 2901.41 5061.33C3003.82 5028.93 3019.99 5045.13 3019.99 5158.56C3019.99 5234.17 2960.7 5482.63 2885.24 5714.87C2788.22 6017.34 2680.41 6222.58 2480.98 6471.04C2335.45 6654.68 2233.04 6805.91 2265.38 6805.91C2297.72 6805.91 2335.45 6773.5 2351.62 6741.1C2378.57 6687.08 2400.13 6687.08 2448.64 6735.69C2491.76 6784.3 2459.42 6897.73 2313.89 7194.79C2206.09 7410.84 2017.44 7718.71 1898.86 7875.34C1774.89 8026.57 1591.63 8204.81 1499.99 8264.22C1402.97 8323.64 1300.56 8377.65 1268.22 8388.45C1235.88 8399.25 1246.66 8447.86 1295.17 8501.87C1365.24 8582.89 1365.24 8599.09 1268.22 8669.31C1208.93 8712.52 1106.52 8750.33 1041.84 8750.33C923.26 8750.33 917.87 8734.12 917.87 8199.41C917.87 7875.34 950.21 7513.46 998.721 7335.22C1041.84 7162.39 1262.83 6557.46 1483.82 5995.74C1704.82 5434.01 1925.81 4829.08 1974.32 4661.65C2017.44 4488.81 2065.95 4126.93 2103.68 3376.17L1963.54 3970.3C1888.08 4299.77 1742.55 4785.88 1645.53 5050.53C1548.51 5315.19 1316.73 5925.52 1133.47 6400.82C890.92 7027.36 788.509 7378.43 756.169 7670.09C729.218 7891.54 718.438 8248.02 734.609 8453.26C745.389 8658.51 766.949 8955.57 783.119 9101.4C799.289 9252.63 820.849 9441.68 831.629 9533.49C847.799 9625.31 896.31 9846.76 939.43 10035.8C1004.11 10295.1 1009.5 10370.7 960.99 10370.7C923.26 10376.1 847.799 10268.1 799.289 10143.8C750.779 10014.2 669.928 9798.15 626.808 9657.72C578.297 9511.89 529.787 9301.25 513.617 9182.42C497.447 9063.59 405.816 8782.73 314.185 8555.88C163.264 8204.81 147.094 8140 217.164 8102.19C287.235 8058.98 287.235 8037.37 217.164 7902.34C174.044 7821.33 103.973 7707.9 55.4629 7653.89C-14.6077 7567.47 -14.6077 7497.26 39.2928 7113.78C77.0231 6870.72 206.384 6357.61 330.355 5968.73C454.326 5579.85 599.857 5163.96 653.758 5039.73C713.048 4910.1 783.119 4807.48 810.069 4807.48C842.409 4807.48 863.97 4850.69 869.36 4904.7C869.36 4985.72 880.14 4980.32 917.87 4888.5C944.82 4829.08 1058.01 4342.98 1160.42 3808.27C1268.22 3273.55 1365.24 2798.25 1381.41 2755.04C1402.97 2690.23 1419.14 2684.82 1473.04 2744.24C1505.38 2782.04 1553.9 2809.05 1580.85 2809.05C1602.41 2809.05 1602.41 2668.62 1586.24 2501.18C1564.68 2328.35 1564.68 2123.1 1586.24 2042.09C1613.19 1912.46 1629.36 1901.66 1704.82 1961.07C1780.28 2020.48 1785.67 1988.07 1753.33 1647.8C1720.99 1334.53 1726.38 1258.92 1796.45 1215.71C1866.52 1172.5 1871.91 1123.89 1828.79 945.65C1796.45 826.825 1791.06 659.389 1812.62 567.569Z" fill="#080808"/>
<path d="M1245.87 15180C1779.98 15286.8 1711.51 16138.6 1615.64 16535.7C1040.46 16700.1 146.109 16782.2 13.3361 16207.1C-73.192 15832.2 300.956 15549.7 629.581 15590.8C615.886 15426.5 752.863 15081.4 1245.87 15180Z" fill="#080808"/>
<path d="M466.401 15792.6C504.66 15694.2 290.49 15876.9 251.441 15974.9C212.391 16073 193.151 16299.3 394.49 16299.3C442.329 16264.2 299.631 16169.9 319.62 16058.6C349.077 15894.4 446.055 15844.9 466.401 15792.6Z" fill="#F4F4F4"/>
<path d="M18644.5 17533.7C18644.5 17596.1 18575.8 17646.7 18491 17646.7C18405.1 17648.5 18337.5 17596.1 18337.5 17533.7C18337.5 17471.3 18406.2 17420.7 18491 17420.7C18577.7 17419.3 18644.5 17471.3 18644.5 17533.7Z" fill="#080808"/>
<path d="M10666.8 11479.5L10752.8 11643.2H10580.7L10666.8 11479.5Z" fill="#F4F4F4"/>
</svg>
